<svg width="113" height="149" fill="none" xmlns="http://www.w3.org/2000/svg"><g filter="url(#a)"><path fill-rule="evenodd" clip-rule="evenodd" d="M103.694 56.53h5.2v-5.198h-5.2v5.198Zm-20.8 0h10.4v-5.198h-10.4v5.198Zm-20.8 0h10.4v-5.198h-10.4v5.198Zm-20.8 0h10.4v-5.198h-10.4v5.198Zm-20.8 0h10.4v-5.198h-10.4v5.198Zm-15.6 0h5.2v-5.198h-5.2v5.198Z" fill="#fff"/></g><g filter="url(#b)"><path fill-rule="evenodd" clip-rule="evenodd" d="M108.894 4.494V0h-5.042v4.494h5.042Zm0 17.977v-8.988h-5.042v8.988h5.042Zm0 17.977V31.46h-5.042v8.988h5.042Zm0 13.483v-4.494h-5.042v4.494h5.042Z" fill="#fff"/></g><g filter="url(#c)"><path fill-rule="evenodd" clip-rule="evenodd" d="M9.936 56.327v-5.645H4.894v5.645h5.042Zm0 22.58v-11.29H4.894v11.29h5.042Zm0 22.579v-11.29H4.894v11.29h5.042Zm0 22.579v-11.289H4.894v11.289h5.042Zm0 16.935v-5.645H4.894V141h5.042Z" fill="#fff"/></g><defs><filter id="a" x=".894" y="51.332" width="112" height="13.198" filterUnits="userSpaceOnUse" color-interpolation-filters="sRGB"><feFlood flood-opacity="0" result="BackgroundImageFix"/><feColorMatrix in="SourceAlpha" values="0 0 0 0 0 0 0 0 0 0 0 0 0 0 0 0 0 0 127 0" result="hardAlpha"/><feOffset dy="4"/><feGaussianBlur stdDeviation="2"/><feComposite in2="hardAlpha" operator="out"/><feColorMatrix values="0 0 0 0 0 0 0 0 0 0 0 0 0 0 0 0 0 0 0.25 0"/><feBlend in2="BackgroundImageFix" result="effect1_dropShadow_248_7"/><feBlend in="SourceGraphic" in2="effect1_dropShadow_248_7" result="shape"/></filter><filter id="b" x="99.852" y="0" width="13.043" height="61.931" filterUnits="userSpaceOnUse" color-interpolation-filters="sRGB"><feFlood flood-opacity="0" result="BackgroundImageFix"/><feColorMatrix in="SourceAlpha" values="0 0 0 0 0 0 0 0 0 0 0 0 0 0 0 0 0 0 127 0" result="hardAlpha"/><feOffset dy="4"/><feGaussianBlur stdDeviation="2"/><feComposite in2="hardAlpha" operator="out"/><feColorMatrix values="0 0 0 0 0 0 0 0 0 0 0 0 0 0 0 0 0 0 0.25 0"/><feBlend in2="BackgroundImageFix" result="effect1_dropShadow_248_7"/><feBlend in="SourceGraphic" in2="effect1_dropShadow_248_7" result="shape"/></filter><filter id="c" x=".894" y="50.682" width="13.043" height="98.318" filterUnits="userSpaceOnUse" color-interpolation-filters="sRGB"><feFlood flood-opacity="0" result="BackgroundImageFix"/><feColorMatrix in="SourceAlpha" values="0 0 0 0 0 0 0 0 0 0 0 0 0 0 0 0 0 0 127 0" result="hardAlpha"/><feOffset dy="4"/><feGaussianBlur stdDeviation="2"/><feComposite in2="hardAlpha" operator="out"/><feColorMatrix values="0 0 0 0 0 0 0 0 0 0 0 0 0 0 0 0 0 0 0.25 0"/><feBlend in2="BackgroundImageFix" result="effect1_dropShadow_248_7"/><feBlend in="SourceGraphic" in2="effect1_dropShadow_248_7" result="shape"/></filter></defs></svg>