<svg width="113" height="149" viewBox="0 0 113 149" fill="none" xmlns="http://www.w3.org/2000/svg">
<g filter="url(#filter0_d_248_7)">
<path fill-rule="evenodd" clip-rule="evenodd" d="M103.694 56.5299H108.894V51.3318H103.694V56.5299ZM82.894 56.5299H93.294V51.3318H82.894V56.5299ZM62.094 56.5299H72.494V51.3318H62.094V56.5299ZM41.294 56.5299H51.694V51.3318H41.294V56.5299ZM20.494 56.5299H30.894V51.3318H20.494V56.5299ZM4.89405 56.5299H10.094V51.3318H4.89405V56.5299Z" fill="white"/>
</g>
<g filter="url(#filter1_d_248_7)">
<path fill-rule="evenodd" clip-rule="evenodd" d="M108.894 4.49424L108.894 2.27219e-07L103.852 0L103.852 4.49424L108.894 4.49424ZM108.894 22.4712L108.894 13.4827L103.852 13.4827L103.852 22.4712L108.894 22.4712ZM108.894 40.4482L108.894 31.4597L103.852 31.4597L103.852 40.4482L108.894 40.4482ZM108.894 53.9309L108.894 49.4366L103.852 49.4366L103.852 53.9309L108.894 53.9309Z" fill="white"/>
</g>
<g filter="url(#filter2_d_248_7)">
<path fill-rule="evenodd" clip-rule="evenodd" d="M9.93647 56.327L9.93647 50.6821L4.89404 50.6821L4.89404 56.327L9.93647 56.327ZM9.93647 78.9065L9.93647 67.6168L4.89404 67.6168L4.89404 78.9065L9.93647 78.9065ZM9.93647 101.486L9.93647 90.1962L4.89404 90.1962L4.89405 101.486L9.93647 101.486ZM9.93647 124.065L9.93647 112.776L4.89405 112.776L4.89405 124.065L9.93647 124.065ZM9.93647 141L9.93647 135.355L4.89405 135.355L4.89405 141L9.93647 141Z" fill="white"/>
</g>
<defs>
<filter id="filter0_d_248_7" x="0.894043" y="51.3318" width="112" height="13.1982" filterUnits="userSpaceOnUse" color-interpolation-filters="sRGB">
<feFlood flood-opacity="0" result="BackgroundImageFix"/>
<feColorMatrix in="SourceAlpha" type="matrix" values="0 0 0 0 0 0 0 0 0 0 0 0 0 0 0 0 0 0 127 0" result="hardAlpha"/>
<feOffset dy="4"/>
<feGaussianBlur stdDeviation="2"/>
<feComposite in2="hardAlpha" operator="out"/>
<feColorMatrix type="matrix" values="0 0 0 0 0 0 0 0 0 0 0 0 0 0 0 0 0 0 0.25 0"/>
<feBlend mode="normal" in2="BackgroundImageFix" result="effect1_dropShadow_248_7"/>
<feBlend mode="normal" in="SourceGraphic" in2="effect1_dropShadow_248_7" result="shape"/>
</filter>
<filter id="filter1_d_248_7" x="99.8516" y="0" width="13.0425" height="61.9309" filterUnits="userSpaceOnUse" color-interpolation-filters="sRGB">
<feFlood flood-opacity="0" result="BackgroundImageFix"/>
<feColorMatrix in="SourceAlpha" type="matrix" values="0 0 0 0 0 0 0 0 0 0 0 0 0 0 0 0 0 0 127 0" result="hardAlpha"/>
<feOffset dy="4"/>
<feGaussianBlur stdDeviation="2"/>
<feComposite in2="hardAlpha" operator="out"/>
<feColorMatrix type="matrix" values="0 0 0 0 0 0 0 0 0 0 0 0 0 0 0 0 0 0 0.25 0"/>
<feBlend mode="normal" in2="BackgroundImageFix" result="effect1_dropShadow_248_7"/>
<feBlend mode="normal" in="SourceGraphic" in2="effect1_dropShadow_248_7" result="shape"/>
</filter>
<filter id="filter2_d_248_7" x="0.894043" y="50.6821" width="13.0425" height="98.3179" filterUnits="userSpaceOnUse" color-interpolation-filters="sRGB">
<feFlood flood-opacity="0" result="BackgroundImageFix"/>
<feColorMatrix in="SourceAlpha" type="matrix" values="0 0 0 0 0 0 0 0 0 0 0 0 0 0 0 0 0 0 127 0" result="hardAlpha"/>
<feOffset dy="4"/>
<feGaussianBlur stdDeviation="2"/>
<feComposite in2="hardAlpha" operator="out"/>
<feColorMatrix type="matrix" values="0 0 0 0 0 0 0 0 0 0 0 0 0 0 0 0 0 0 0.25 0"/>
<feBlend mode="normal" in2="BackgroundImageFix" result="effect1_dropShadow_248_7"/>
<feBlend mode="normal" in="SourceGraphic" in2="effect1_dropShadow_248_7" result="shape"/>
</filter>
</defs>
</svg>
